HIERARCHY
ROOT Hips
{
	OFFSET 0.00000 0.00000 0.00000
	CHANNELS 6 Xposition Yposition Zposition Zrotation Yrotation Xrotation 
	JOINT LHipJoint
	{
		OFFSET 0 0 0
		CHANNELS 3 Zrotation Yrotation Xrotation
		JOINT LeftHip
		{
			OFFSET 1.32989 -1.57253 0.78074
			CHANNELS 3 Zrotation Yrotation Xrotation
			JOINT LeftKnee
			{
				OFFSET 2.24323 -6.16323 0.00000
				CHANNELS 3 Zrotation Yrotation Xrotation
				JOINT LeftAnkle
				{
					OFFSET 2.32677 -6.39275 0.00000
					CHANNELS 3 Zrotation Yrotation Xrotation
					JOINT LeftToe
					{
						OFFSET 0.18686 -0.51340 1.95973
						CHANNELS 3 Zrotation Yrotation Xrotation
						End Site
						{
							OFFSET 0.00000 -0.00000 1.02033
						}
					}
				}
			}
		}
	}
	JOINT RHipJoint
	{
		OFFSET 0 0 0
		CHANNELS 3 Zrotation Yrotation Xrotation
		JOINT RightHip
		{
			OFFSET -1.27392 -1.57253 0.78074
			CHANNELS 3 Zrotation Yrotation Xrotation
			JOINT RightKnee
			{
				OFFSET -2.19978 -6.04385 0.00000
				CHANNELS 3 Zrotation Yrotation Xrotation
				JOINT RightAnkle
				{
					OFFSET -2.29380 -6.30216 0.00000
					CHANNELS 3 Zrotation Yrotation Xrotation
					JOINT RightToe
					{
						OFFSET -0.24624 -0.67655 1.94854
						CHANNELS 3 Zrotation Yrotation Xrotation
						End Site
						{
							OFFSET -0.00000 -0.00000 1.03267
						}
					}
				}
			}
		}
	}
	JOINT lowerback
	{
		OFFSET 0 0 0
		CHANNELS 3 Zrotation Yrotation Xrotation
		JOINT Chest
		{
			OFFSET -0.05982 2.08655 0.02100
			CHANNELS 3 Zrotation Yrotation Xrotation
			JOINT Chest2
			{
				OFFSET 0.04735 2.08455 -0.01795
				CHANNELS 3 Zrotation Yrotation Xrotation
				JOINT lowerneck
				{
					OFFSET 0 0 0
					CHANNELS 3 Zrotation Yrotation Xrotation
					JOINT Neck
					{
						OFFSET -0.10038 1.43781 0.03084
						CHANNELS 3 Zrotation Yrotation Xrotation
						JOINT Head
						{
							OFFSET 0.07701 1.43632 -0.18495
							CHANNELS 3 Zrotation Yrotation Xrotation
							End Site
							{
								OFFSET 0.02744 1.45633 -0.07361
							}
						}
					}
				}
				JOINT LeftCollar
				{
					OFFSET 0 0 0
					CHANNELS 3 Zrotation Yrotation Xrotation
					JOINT LeftShoulder
					{
						OFFSET 2.75061 0.74389 0.25227
CHANNELS 3 Zrotation Xrotation Yrotation
						JOINT LeftElbow
						{
OFFSET 0 -4.369010 0.000000
CHANNELS 3 Zrotation Xrotation Yrotation
							JOINT LeftWrist
							{
OFFSET 0 -3.217370 -0.000000
CHANNELS 3 Zrotation Xrotation Yrotation
								JOINT lhand
								{
									OFFSET 0 0 0
CHANNELS 3 Zrotation Xrotation Yrotation
									JOINT LFingers
									{
OFFSET 0 -0.564310 0.000000
CHANNELS 3 Zrotation Xrotation Yrotation
										End Site
										{
OFFSET 0 -0.454960 0.000000
										}
									}
								}
								JOINT LThumb
								{
OFFSET 0 0.000000 0.000000
CHANNELS 3 Zrotation Xrotation Yrotation
									End Site
									{
OFFSET 0 -0.461910 0.461910
									}
								}
							}
						}
					}
				}
				JOINT RightCollar
				{
					OFFSET 0 0 0
					CHANNELS 3 Zrotation Yrotation Xrotation
					JOINT RightShoulder
					{
						OFFSET -2.97379 0.79094 0.48377
CHANNELS 3 Zrotation Xrotation Yrotation
						JOINT RightElbow
						{
OFFSET 0 -4.341180 -0.000000
CHANNELS 3 Zrotation Xrotation Yrotation
							JOINT RightWrist
							{
OFFSET 0 -3.095310 0.000000
CHANNELS 3 Zrotation Xrotation Yrotation
								JOINT rhand
								{
									OFFSET 0 0 0
CHANNELS 3 Zrotation Xrotation Yrotation
									JOINT RFingers
									{
OFFSET 0 -0.597450 0.000000
CHANNELS 3 Zrotation Xrotation Yrotation
										End Site
										{
OFFSET 0 -0.481680 0.000000
										}
									}
								}
								JOINT RThumb
								{
OFFSET 0 0.000000 0.000000
CHANNELS 3 Zrotation Xrotation Yrotation
									End Site
									{
OFFSET 0 -0.489030 0.489030
									}
								}
							}
						}
					}
				}
			}
		}
	}
}
MOTION
Frames: 4
Frame Time: 0.008333333333333333
11.012405 14.682380 2.685875 34.244097 36.321314 -135.941312 0.000000 0.000000 0.000000 10.580020 26.770760 6.897585 17.042183 19.784405 81.320761 2.063853 -5.045563 29.314089 0.019238 0.747437 2.054728 0.000000 0.000000 0.000000 -3.164413 -10.863046 9.416252 -19.192448 -19.983794 87.638247 0.339630 -23.124382 13.757594 -1.011476 -6.388905 17.920490 -6.672328 -5.465419 -2.761465 5.184610 -6.840065 -12.094272 9.681614 -2.330944 -10.038900 -7.838533 -3.214667 -15.430724 6.438053 -2.942790 -8.206522 3.358260 -1.211987 0.240379 0.000000 0.000000 0.000000 139.845363 -12.918355 65.943249 25.384470 -36.592461 8.518852 49.797795 -51.737353 -48.125771 0.000000 0.000000 0.000000 -7.125000 0.000000 0.000000 89.252862 87.209195 -86.457995 0.000000 0.000000 0.000000 -114.397249 -10.526291 -58.644756 -37.599720 -46.581138 -16.674403 -91.469096 111.318415 39.757557 0.000000 0.000000 0.000000 7.125000 0.000000 0.000000 -30.264550 -57.055929 -42.642727
11.057216 14.739739 2.506824 33.337690 37.235943 -137.803937 0.000000 0.000000 0.000000 9.763860 26.712679 6.774356 16.560949 19.709016 79.896483 1.907160 -5.759890 28.672267 0.007314 0.192112 0.528184 0.000000 0.000000 0.000000 -3.185040 -10.649137 9.488757 -19.024745 -19.976582 87.147541 0.365689 -22.689545 13.179382 -0.891227 -6.005514 16.804069 -6.955183 -5.368057 -2.565394 5.115231 -6.740395 -12.104417 9.789843 -2.249833 -10.172899 -7.522598 -3.098602 -16.131973 6.122359 -2.690369 -8.107765 3.199980 -1.013560 0.359137 0.000000 0.000000 0.000000 140.890288 -13.767066 66.361546 25.012811 -36.214984 8.298357 49.176984 -52.809059 -48.537914 0.000000 0.000000 0.000000 -7.125000 0.000000 0.000000 90.018586 87.606385 -87.622784 0.000000 0.000000 0.000000 -114.613946 -11.447074 -57.861867 -37.849160 -46.742014 -16.855810 -92.189288 112.713845 39.811070 0.000000 0.000000 0.000000 7.125000 0.000000 0.000000 -30.866850 -57.824586 -43.327580
11.098956 14.792271 2.320845 32.389388 38.086899 -139.676257 0.000000 0.000000 0.000000 8.960971 26.587432 6.633572 16.066160 19.620132 78.426108 1.805311 -6.036960 28.148901 0.004864 0.091778 0.252323 0.000000 0.000000 0.000000 -3.174719 -10.434401 9.562838 -18.845850 -19.967390 86.623788 0.400738 -22.289594 12.538711 -0.818733 -5.773645 16.129086 -7.210425 -5.321700 -2.394634 5.091867 -6.698376 -12.129288 9.932088 -2.194922 -10.293809 -7.343602 -2.951084 -16.607564 5.883224 -2.423263 -8.073104 3.096969 -0.833718 0.422384 0.000000 0.000000 0.000000 141.837990 -14.539318 66.601858 24.697106 -35.892109 8.111980 48.734886 -53.648462 -49.016759 0.000000 0.000000 0.000000 -7.125000 0.000000 0.000000 96.055285 52.256175 -46.290535 0.000000 0.000000 0.000000 -114.849106 -12.395470 -56.985895 -38.110720 -46.909193 -17.046548 -92.869727 113.951065 39.818324 0.000000 0.000000 0.000000 7.125000 0.000000 0.000000 -31.500399 -58.537268 -44.058814
11.136459 14.838140 2.125303 31.383263 38.849979 -141.561960 0.000000 0.000000 0.000000 8.176399 26.369485 6.468561 15.552665 19.512625 76.892112 1.779155 -5.710544 27.789021 0.015490 0.619410 1.702612 0.000000 0.000000 0.000000 -3.121687 -10.218521 9.639093 -18.651510 -19.955466 86.054423 0.448193 -21.937792 11.811836 -0.812146 -5.750903 16.063361 -7.427555 -5.345740 -2.258808 5.132014 -6.735927 -12.174484 10.121284 -2.176171 -10.396652 -7.353602 -2.760158 -16.771710 5.749753 -2.135888 -8.126906 3.070236 -0.679525 0.409018 0.000000 0.000000 0.000000 142.651506 -15.206045 66.596521 24.458629 -35.644592 7.972691 48.539440 -54.167246 -49.587662 0.000000 0.000000 0.000000 -7.125000 0.000000 0.000000 109.366798 -32.431355 53.694651 0.000000 0.000000 0.000000 -115.109748 -13.381979 -55.981453 -38.389007 -47.085070 -17.250168 -93.495297 114.969931 39.761734 0.000000 0.000000 0.000000 7.125000 0.000000 0.000000 -32.177079 -59.172695 -44.854059
